<svg fill="currentColor" viewBox="0 0 24 24">
  <path d="M5 22c-.55 0-1.02-.196-1.413-.587A1.926 1.926 0 0 1 3 20V6c0-.55.196-1.02.587-1.412A1.926 1.926 0 0 1 5 4h1V2h2v2h8V2h2v2h1c.55 0 1.02.196 1.413.588.391.391.587.862.587 1.412v6h-2v-2H5v10h7v2H5Zm14 2c-1.217 0-2.28-.38-3.188-1.137A4.9 4.9 0 0 1 14.1 20h1.55c.217.733.63 1.333 1.237 1.8.609.467 1.313.7 2.113.7.967 0 1.792-.342 2.475-1.025A3.372 3.372 0 0 0 22.5 19c0-.967-.342-1.792-1.025-2.475A3.372 3.372 0 0 0 19 15.5a3.404 3.404 0 0 0-2.45 1H18V18h-4v-4h1.5v1.425c.45-.433.975-.78 1.575-1.038A4.816 4.816 0 0 1 19 14c1.383 0 2.563.488 3.538 1.463C23.512 16.438 24 17.617 24 19s-.488 2.563-1.462 3.538C21.562 23.512 20.383 24 19 24Z"/>
</svg>
