<svg fill="currentColor" viewBox="0 0 24 24">
  <path d="m12 16.4 1.54-1.54-1.76-1.76h4.62v-2.2h-4.62l1.76-1.76L12 7.6 7.6 12l4.4 4.4Zm0 6.6c-1.522 0-2.952-.289-4.29-.866a11.11 11.11 0 0 1-3.492-2.352 11.109 11.109 0 0 1-2.352-3.492A10.711 10.711 0 0 1 1 12c0-1.522.289-2.952.866-4.29a11.108 11.108 0 0 1 2.352-3.492A11.12 11.12 0 0 1 7.71 1.866 10.711 10.711 0 0 1 12 1c1.522 0 2.952.289 4.29.866a11.109 11.109 0 0 1 3.492 2.352 11.11 11.11 0 0 1 2.352 3.492C22.71 9.048 23 10.478 23 12c0 1.522-.289 2.952-.866 4.29a11.11 11.11 0 0 1-2.352 3.492 11.11 11.11 0 0 1-3.492 2.352A10.711 10.711 0 0 1 12 23Zm0-2.2c2.457 0 4.538-.852 6.242-2.558C19.948 16.538 20.8 14.457 20.8 12s-.852-4.537-2.558-6.242C16.538 4.053 14.457 3.2 12 3.2s-4.537.853-6.242 2.558C4.053 7.463 3.2 9.543 3.2 12s.853 4.538 2.558 6.242C7.463 19.948 9.543 20.8 12 20.8Z"/>
</svg>
